# Test .obj file where for a river which is disconnected.
#
# A schematic of the grid is given below.
#   Legend:
#       (+) : vertices on the edge of the river (z-coordinate = 0).
#       (*) : vertices in the interior of the river (z-coordinate = 1).
#       (H) : The vertex representing the head of the river.
#
#     +-+-+
#     |*-*|
# +-+-+|+-+
# |H-*-*|
# +-+-+|+-+-+-+-+
#     |*-*-*-*-*|
#     +-+-+-+|+-+
#           |*|
#           +-+
#           |*|
#           +-+
#
# Expected Directed Graph (inner vertices ordered left-to-right top-to-bottom)
# [
#  0 0 0 0 1 0 0 0 0 0 0
#  1 0 0 0 0 0 0 0 0 0 0
#  0 0 0 0 0 0 0 0 0 0 0
#  0 0 0 1 0 0 0 0 0 0 0
#  0 0 0 0 1 0 0 0 0 0 0
#  0 0 0 0 0 1 0 0 0 0 0
#  0 0 0 0 0 0 1 0 0 0 0
#  0 0 0 0 0 0 0 1 0 0 0
#  0 0 0 0 0 0 0 0 1 0 0
#  0 0 0 0 0 0 0 1 0 0 0
#  0 0 0 0 0 0 0 0 0 0 0
# ]

o river

## Vertices
#           1 - 3
v  4  4 0
v  6  4 0
v  8  4 0
#           4 - 5
v  5  3 1
v  7  3 1
#           6 - 10
v  0  2 0
v  2  2 0
v  4  2 0
v  6  2 0
v  8  2 0
#           11 - 13
v  1  1 1.01
v  3  1 1
v  5  1 1
#           14 - 21
v  0  0 0
v  2  0 0
v  4  0 0
v  6  0 0
v  8  0 0
v 10  0 0
v 12  0 0
v 14  0 0
#           22 - 26
v  5 -1 1
v  7 -1 1
v  9 -1 1
v 11 -1 1
v 13 -1 1
#           27 - 32
v  4 -2 0
v  6 -2 0
v  8 -2 0
v 10 -2 0
v 12 -2 0
v 14 -2 0
#           33
v 11 -3 1
#           34 - 35
v 10 -4 0
v 12 -4 0
#           36
v 11 -5 1
#           37 - 38
v 10 -6 0
v 12 -6 0

## Normal Vector
#   This is not the correct normal vector, but the normal vector is not used for these tests.
vn 0 0 1

## Faces
# Row 1
f 1//1 4//1  5//1 3//1 2//1
f 1//1 8//1 13//1 4//1
f 3//1 5//1 10//1
f 4//1 9//1 10//1 5//1
# Row 2
f  4//1 13//1 22//1 17//1  9//1
f  6//1 11//1 12//1 13//1  8//1  7//1
f  6//1 14//1 11//1
f 14//1 15//1 16//1 13//1 12//1 11//1
# Row 3
f 16//1 27//1 22//1 13//1
f 17//1 22//1 23//1 24//1 25//1 26//1 21//1 20//1 19//1 18//1
f 21//1 26//1 32//1
f 27//1 28//1 29//1 30//1 25//1 24//1 23//1 22//1
f 25//1 31//1 32//1 26//1
# Row 4
f 30//1 34//1 33//1 25//1
f 25//1 33//1 35//1 31//1
f 33//1 34//1 35//1

# Row 5
f 34//1 36//1 35//1
f 34//1 37//1 36//1
f 37//1 38//1 36//1
f 36//1 38//1 35//1